Coordinates
version=1
nRows=43
nColumns=12
inDegrees=yes

Units are S.I. units (second, meters, Newtons, ...)
Angles are in degrees

endheader
time	SC_y	SC_z	SC_x	AC_y	AC_z	AC_x	GH_y	GH_z	GH_yy	EL_x	PS_y
       0.0              -21.08          24.53          67.98          36.88         -3.076         -7.893          158.1         -13.27          73.07          104.7          43.62
   0.01267              -21.08          24.53          67.98          36.88         -3.079         -7.891          158.0         -13.26          73.06          104.7          43.62
   0.02534              -21.08          24.54          67.98          36.88         -3.081         -7.889          158.0         -13.25          73.05          104.7          43.63
   0.03801              -21.08          24.54          67.97          36.88         -3.084         -7.887          158.0         -13.24          73.04          104.7          43.63
   0.05068              -21.08          24.54          67.97          36.88         -3.087         -7.884          157.9         -13.23          73.03          104.7          43.64
   0.06335              -21.08          24.54          67.97          36.88          -3.09         -7.882          157.9         -13.22          73.01          104.7          43.65
   0.07602              -21.09          24.55          67.96          36.88         -3.093         -7.879          157.8         -13.21           73.0          104.7          43.65
   0.08869              -21.09          24.55          67.96          36.88         -3.097         -7.876          157.8         -13.19          72.99          104.7          43.66
    0.1014              -21.09          24.55          67.96          36.88         -3.101         -7.873          157.7         -13.18          72.97          104.7          43.67
     0.114              -21.09          24.55          67.95          36.87         -3.105          -7.87          157.7         -13.16          72.96          104.7          43.67
    0.1267              -21.09          24.56          67.95          36.87         -3.109         -7.866          157.6         -13.15          72.94          104.7          43.68
    0.1394               -21.1          24.56          67.95          36.87         -3.114         -7.863          157.5         -13.13          72.92          104.7          43.69
     0.152               -21.1          24.57          67.94          36.87         -3.119         -7.859          157.5         -13.11           72.9          104.7           43.7
    0.1647               -21.1          24.57          67.94          36.87         -3.125         -7.854          157.4         -13.09          72.88          104.7          43.71
    0.1774              -21.11          24.57          67.93          36.87         -3.131         -7.849          157.3         -13.06          72.85          104.7          43.72
    0.1901              -21.11          24.58          67.92          36.87         -3.137         -7.844          157.2         -13.04          72.83          104.7          43.73
    0.2027              -21.11          24.58          67.92          36.87         -3.144         -7.839          157.1         -13.01           72.8          104.7          43.75
    0.2154              -21.12          24.59          67.91          36.87         -3.152         -7.833          157.0         -12.98          72.77          104.7          43.76
    0.2281              -21.12           24.6           67.9          36.87          -3.16         -7.826          156.9         -12.95          72.74          104.7          43.78
    0.2407              -21.13           24.6           67.9          36.87          -3.17         -7.819          156.8         -12.92           72.7          104.7          43.79
    0.2534              -21.13          24.61          67.89          36.87          -3.18         -7.811          156.6         -12.88          72.66          104.7          43.81
    0.2661              -21.14          24.62          67.88          36.87         -3.191         -7.802          156.5         -12.84          72.62          104.7          43.83
    0.2787              -21.14          24.63          67.86          36.87         -3.203         -7.792          156.3         -12.79          72.57          104.7          43.86
    0.2914              -21.15          24.64          67.85          36.86         -3.217         -7.781          156.1         -12.74          72.51          104.7          43.88
    0.3041              -21.16          24.65          67.84          36.86         -3.232         -7.769          155.9         -12.68          72.45          104.7          43.91
    0.3168              -21.17          24.67          67.82          36.86         -3.249         -7.756          155.6         -12.62          72.39          104.7          43.94
    0.3294              -21.18          24.68          67.81          36.86         -3.268         -7.741          155.4         -12.55          72.31          104.7          43.98
    0.3421              -21.19           24.7          67.79          36.86         -3.289         -7.724          155.1         -12.47          72.23          104.7          44.02
    0.3548               -21.2          24.72          67.76          36.85         -3.313         -7.705          154.7         -12.37          72.13          104.7          44.06
    0.3674              -21.22          24.74          67.74          36.85          -3.34         -7.683          154.4         -12.27          72.03          104.7          44.11
    0.3801              -21.23          24.76          67.71          36.85         -3.371         -7.658          153.9         -12.15           71.9          104.7          44.17
    0.3928              -21.25          24.79          67.68          36.85         -3.407          -7.63          153.4         -12.02          71.76          104.6          44.23
    0.4054              -21.27          24.82          67.64          36.84         -3.448         -7.597          152.8         -11.86           71.6          104.6          44.31
    0.4181               -21.3          24.86           67.6          36.84         -3.496         -7.559          152.2         -11.68          71.41          104.6           44.4
    0.4308              -21.33           24.9          67.55          36.83         -3.552         -7.514          151.4         -11.47          71.19          104.6           44.5
    0.4435              -21.36          24.95          67.49          36.83         -3.618         -7.462          150.4         -11.22          70.93          104.6          44.63
    0.4561              -21.41          25.01          67.42          36.82         -3.697         -7.399          149.3         -10.92          70.62          104.6          44.77
    0.4688              -21.46          25.09          67.33          36.81         -3.791         -7.325          148.0         -10.56          70.24          104.6          44.95
    0.4815              -21.52          25.17          67.23           36.8         -3.905         -7.234          146.4         -10.13          69.79          104.6          45.16
    0.4941              -21.59          25.28           67.1          36.78         -4.044         -7.123          144.4         -9.606          69.24          104.6          45.42
    0.5068              -21.68          25.42          66.94          36.77         -4.216         -6.987          142.0         -8.956          68.57          104.6          45.74
    0.5195               -21.8          25.58          66.75          36.75          -4.43         -6.817          139.0         -8.145          67.72          104.5          46.14
    0.5321              -21.94          25.79           66.5          36.72           -4.7         -6.602          135.2         -7.124          66.65          104.5          46.64
